<svg width="25" height="24" viewBox="0 0 25 24" fill="none" xmlns="http://www.w3.org/2000/svg">
<g id="calendar">
<path id="Vector" d="M17.2167 3.87683V4.12683H17.4667H20.6666C21.4278 4.12683 22.0166 4.69798 22.0166 5.35375V20.123C22.0166 20.7787 21.4278 21.3499 20.6666 21.3499H4.66665C3.9055 21.3499 3.31665 20.7787 3.31665 20.123V5.35375C3.31665 4.69798 3.9055 4.12683 4.66665 4.12683H7.86665H8.11665V3.87683V2.6499H9.21665V3.87683V4.12683H9.46665H15.8666H16.1166V3.87683V2.6499H17.2167V3.87683ZM20.6666 20.373H20.9166V20.123V9.78452V9.53452H20.6666H4.66665H4.41665V9.78452V20.123V20.373H4.66665H20.6666ZM20.6666 8.55759H20.9166V8.30759V5.35375V5.10375H20.6666H17.4667H17.2167V5.35375V6.58067H16.1166V5.35375V5.10375H15.8666H9.46665H9.21665V5.35375V6.58067H8.11665V5.35375V5.10375H7.86665H4.66665H4.41665V5.35375V8.30759V8.55759H4.66665H20.6666Z" fill="#ABA7AF" stroke="#ABA7AF" stroke-width="0.5"/>
</g>
</svg>
