<svg width="250" height="27" viewBox="0 0 250 27" fill="none" xmlns="http://www.w3.org/2000/svg">
<g clip-path="url(#clip0_1339_21943)">
<g clip-path="url(#clip1_1339_21943)">
<path fill-rule="evenodd" clip-rule="evenodd" d="M6.931 26.5498H0.0090332V6.55518H6.931C13.1877 6.55518 17.5207 10.8661 17.5207 16.5209C17.5207 22.1757 13.1877 26.5498 6.931 26.5498ZM6.931 8.63851H2.25643V24.4664H6.931C11.9652 24.4664 15.1834 21.0393 15.1834 16.584C15.1834 12.1288 11.9652 8.63851 6.931 8.63851Z" fill="#F69D1E"/>
<path fill-rule="evenodd" clip-rule="evenodd" d="M34.8615 26.5498L29.0812 18.7846H23.3819V26.5498H21.1345V6.55518H29.7015C34.0884 6.55518 36.9112 8.92711 36.9112 12.5256C36.9112 15.8716 34.6278 17.8106 31.4994 18.3788L37.6213 26.5498H34.8615ZM29.5397 8.63851H23.3819V16.7554H29.5038C32.4973 16.7554 34.6278 15.2132 34.6278 12.6068C34.6278 10.1266 32.749 8.63851 29.5397 8.63851Z" fill="#F69D1E"/>
<path d="M55.5555 8.61145H43.4016V15.4387H54.279V17.4949H43.4016V24.4935H55.6994V26.5498H41.1542V6.55518H55.5555V8.61145Z" fill="#F69D1E"/>
<path fill-rule="evenodd" clip-rule="evenodd" d="M78.7936 26.55H76.3664L74.0381 21.265H63.1877L60.8234 26.55H58.5221L67.6016 6.41113H69.7051L78.7936 26.55ZM68.6354 9.04461L64.0776 19.2358H73.1571L68.6354 9.04461Z" fill="#F69D1E"/>
<path d="M91.1453 21.0664H91.0284L83.7738 10.3791V26.5498H81.5804V6.55518H83.8547L91.1183 17.4679L98.3819 6.55518H100.656V26.5498H98.4088V10.3521L91.1453 21.0664Z" fill="#F69D1E"/>
<path d="M107.623 23.123L111.183 19.75C112.154 20.9224 113.062 21.6078 114.284 21.6078C115.678 21.6078 116.568 20.6699 116.568 18.812V6.15869H122.06V18.8391C122.06 21.3553 121.431 23.123 120.092 24.4668C118.788 25.7745 116.909 26.496 114.626 26.496C111.156 26.496 109.017 25.035 107.623 23.123Z" fill="#18335D"/>
<path d="M147.348 17.378V6.15869H152.949V17.2698C152.949 20.1558 154.405 21.5267 156.625 21.5267C158.846 21.5267 160.302 20.2099 160.302 17.4141V6.15869H165.903V17.2427C165.903 23.6912 162.235 26.5231 156.571 26.5231C150.899 26.5231 147.348 23.637 147.348 17.378Z" fill="#18335D"/>
<path fill-rule="evenodd" clip-rule="evenodd" d="M169.184 6.15869H178.605C181.652 6.15869 183.756 6.95234 185.095 8.32319C186.264 9.46858 186.866 11.0108 186.866 12.9859V13.04C186.866 16.0974 185.239 18.1266 182.758 19.1818L187.513 26.1533H181.14L177.122 20.0927H174.703V26.1533H169.184V6.15869ZM178.353 15.7547C180.232 15.7547 181.311 14.8438 181.311 13.3827V13.3286C181.311 11.7503 180.169 10.9567 178.317 10.9567H174.703V15.7547H178.353Z" fill="#18335D"/>
<path d="M189.653 6.15869H194.804L203.002 16.7287V6.15869H208.468V26.1533H203.632L195.119 15.1775V26.1533H189.653V6.15869Z" fill="#18335D"/>
<path d="M212.001 6.15869H228.029V10.8665H217.467V13.8968H227.032V18.2709H217.467V21.4365H228.173V26.1533H212.001V6.15869Z" fill="#18335D"/>
<path d="M236.74 18.6677L229.171 6.15869H235.464L239.563 13.4368L243.689 6.15869H249.874L242.296 18.5775V26.1533H236.74V18.6677Z" fill="#18335D"/>
<path d="M137.442 15.7365C137.448 15.7485 137.457 15.7605 137.469 15.7726C137.46 15.7455 137.451 15.7185 137.442 15.6914C137.442 15.7094 137.442 15.7245 137.442 15.7365Z" fill="#18335D"/>
<path d="M134.502 26.5679C134.772 24.7281 136.498 23.3572 138.107 23.0686C138.439 22.5004 138.718 21.8871 138.808 21.2288C139.051 19.3529 138.619 17.6123 137.729 16.3496C137.001 17.3146 135.743 19.2176 136.641 19.903C136.767 20.0022 136.911 20.0834 137.055 20.1465C136.65 20.1285 136.255 19.9842 135.904 19.7226C134.996 19.0282 134.817 17.7295 135.509 16.8186C135.752 16.4939 136.075 16.2685 136.426 16.1422C135.257 16.2414 134.16 17.0711 134.268 18.0452C134.286 18.2165 134.322 18.3698 134.385 18.5231C134.115 18.2165 133.936 17.8287 133.891 17.3958C133.765 16.2594 134.583 15.2313 135.716 15.105C135.904 15.078 136.093 15.087 136.282 15.1231C135.886 14.8435 135.446 14.5729 134.933 14.7082C134.933 14.7082 135.841 13.9506 136.597 14.3475C136.588 13.4456 137.738 13.0217 137.738 13.0217C137.253 13.5087 137.388 14.2122 137.451 14.7713C137.522 14.4737 137.657 14.1941 137.864 13.9326C138.592 13.0488 139.896 12.9225 140.777 13.644C141.109 13.9236 141.334 14.2843 141.451 14.6721C141.352 14.5459 141.244 14.4286 141.118 14.3204C140.327 13.6711 139.275 14.3294 138.529 15.1321C138.835 14.9788 139.204 14.8976 139.599 14.9156C140.741 14.9698 141.613 15.9438 141.559 17.0892C141.541 17.5221 141.388 17.9189 141.136 18.2436C141.181 18.0902 141.217 17.9279 141.226 17.7656C141.28 16.6292 139.195 16.2865 137.999 16.2234C138.835 16.999 139.644 18.3788 139.86 19.5152C140.093 20.7147 140.093 22.0134 139.752 23.0866C140.66 23.2219 141.406 23.5376 141.81 23.9434C143.995 22.0134 145.37 19.1996 145.37 16.052C145.37 10.2439 140.669 5.53613 134.871 5.53613C132.767 5.53613 130.816 6.15843 129.18 7.23166C130.052 8.18765 130.565 9.44126 130.565 10.8301C130.565 13.8154 128.155 16.2414 125.18 16.2414C124.91 16.2414 124.64 16.2234 124.389 16.1783C124.461 21.806 128.928 26.3695 134.502 26.5679Z" fill="#18335D"/>
<path d="M130.574 3.95798C129.603 3.95798 128.812 3.17334 128.812 2.19932C128.812 1.21627 129.603 0.431641 130.574 0.431641C131.544 0.431641 132.335 1.21627 132.335 2.19932C132.335 3.17334 131.544 3.95798 130.574 3.95798Z" fill="#F69D1E"/>
<path d="M129.18 7.23193C130.052 8.18792 130.565 9.44153 130.565 10.8304C130.565 13.8156 128.155 16.2417 125.18 16.2417C124.91 16.2417 124.64 16.2236 124.389 16.1785C124.389 16.1425 124.389 16.0974 124.389 16.0523C124.389 12.3456 126.303 9.09882 129.18 7.23193Z" fill="#F69D1E"/>
<path d="M125.18 5.41895C126.78 5.41895 128.209 6.12241 129.18 7.23172C126.303 9.0986 124.389 12.3454 124.389 16.0521C124.389 16.0972 124.389 16.1423 124.389 16.1783C121.782 15.7995 119.786 13.5448 119.786 10.8302C119.786 7.84499 122.195 5.41895 125.18 5.41895Z" fill="#FECA0A"/>
</g>
</g>
<defs>
<clipPath id="clip0_1339_21943">
<rect width="250" height="26.5152" fill="white" transform="translate(0 0.242188)"/>
</clipPath>
<clipPath id="clip1_1339_21943">
<rect width="250" height="26.5152" fill="white" transform="translate(0 0.242188)"/>
</clipPath>
</defs>
</svg>
