<svg width="230" height="230" viewBox="0 0 230 230" fill="none" xmlns="http://www.w3.org/2000/svg">
<ellipse cx="5.00003" cy="125" rx="5.00003" ry="5" fill="#18335D"/>
<ellipse cx="24.9998" cy="125" rx="5.00003" ry="5" fill="#18335D"/>
<ellipse cx="44.9983" cy="125" rx="5.00003" ry="5" fill="#18335D"/>
<ellipse cx="65.0006" cy="125" rx="5.00003" ry="5" fill="#18335D"/>
<ellipse cx="85.0004" cy="125" rx="5.00003" ry="5" fill="#18335D"/>
<ellipse cx="105.001" cy="125" rx="5.00003" ry="5" fill="#18335D"/>
<ellipse cx="5.00003" cy="145" rx="5.00003" ry="5" fill="#18335D"/>
<ellipse cx="24.9998" cy="145" rx="5.00003" ry="5" fill="#18335D"/>
<ellipse cx="44.9983" cy="145" rx="5.00003" ry="5" fill="#18335D"/>
<ellipse cx="65.0006" cy="145" rx="5.00003" ry="5" fill="#18335D"/>
<ellipse cx="85.0004" cy="145" rx="5.00003" ry="5" fill="#18335D"/>
<ellipse cx="105.001" cy="145" rx="5.00003" ry="5" fill="#18335D"/>
<ellipse cx="5.00003" cy="165" rx="5.00003" ry="5" fill="#18335D"/>
<ellipse cx="24.9998" cy="165" rx="5.00003" ry="5" fill="#18335D"/>
<ellipse cx="44.9983" cy="165" rx="5.00003" ry="5" fill="#18335D"/>
<ellipse cx="65.0006" cy="165" rx="5.00003" ry="5" fill="#18335D"/>
<ellipse cx="85.0004" cy="165" rx="5.00003" ry="5" fill="#18335D"/>
<ellipse cx="105.001" cy="165" rx="5.00003" ry="5" fill="#18335D"/>
<ellipse cx="5.00003" cy="185" rx="5.00003" ry="5" fill="#18335D"/>
<ellipse cx="24.9998" cy="185" rx="5.00003" ry="5" fill="#18335D"/>
<ellipse cx="44.9983" cy="185" rx="5.00003" ry="5" fill="#18335D"/>
<ellipse cx="65.0006" cy="185" rx="5.00003" ry="5" fill="#18335D"/>
<ellipse cx="85.0004" cy="185" rx="5.00003" ry="5" fill="#18335D"/>
<ellipse cx="105.001" cy="185" rx="5.00003" ry="5" fill="#18335D"/>
<ellipse cx="5.00003" cy="205" rx="5.00003" ry="5" fill="#18335D"/>
<ellipse cx="24.9998" cy="205" rx="5.00003" ry="5" fill="#18335D"/>
<ellipse cx="44.9983" cy="205" rx="5.00003" ry="5" fill="#18335D"/>
<ellipse cx="65.0006" cy="205" rx="5.00003" ry="5" fill="#18335D"/>
<ellipse cx="85.0004" cy="205" rx="5.00003" ry="5" fill="#18335D"/>
<ellipse cx="105.001" cy="205" rx="5.00003" ry="5" fill="#18335D"/>
<ellipse cx="5.00003" cy="225" rx="5.00003" ry="5" fill="#18335D"/>
<ellipse cx="24.9998" cy="225" rx="5.00003" ry="5" fill="#18335D"/>
<ellipse cx="44.9983" cy="225" rx="5.00003" ry="5" fill="#18335D"/>
<ellipse cx="65.0006" cy="225" rx="5.00003" ry="5" fill="#18335D"/>
<ellipse cx="85.0004" cy="225" rx="5.00003" ry="5" fill="#18335D"/>
<ellipse cx="105.001" cy="225" rx="5.00003" ry="5" fill="#18335D"/>
<ellipse cx="5.00003" cy="5" rx="5.00003" ry="5" fill="#18335D"/>
<ellipse cx="24.9998" cy="5" rx="5.00003" ry="5" fill="#18335D"/>
<ellipse cx="44.9983" cy="5" rx="5.00003" ry="5" fill="#18335D"/>
<ellipse cx="65.0006" cy="5" rx="5.00003" ry="5" fill="#18335D"/>
<ellipse cx="85.0004" cy="5" rx="5.00003" ry="5" fill="#18335D"/>
<ellipse cx="105.001" cy="5" rx="5.00003" ry="5" fill="#18335D"/>
<ellipse cx="5.00003" cy="25" rx="5.00003" ry="5" fill="#18335D"/>
<ellipse cx="24.9998" cy="25" rx="5.00003" ry="5" fill="#18335D"/>
<ellipse cx="44.9983" cy="25" rx="5.00003" ry="5" fill="#18335D"/>
<ellipse cx="65.0006" cy="25" rx="5.00003" ry="5" fill="#18335D"/>
<ellipse cx="85.0004" cy="25" rx="5.00003" ry="5" fill="#18335D"/>
<ellipse cx="105.001" cy="25" rx="5.00003" ry="5" fill="#18335D"/>
<ellipse cx="5.00003" cy="45" rx="5.00003" ry="5" fill="#18335D"/>
<ellipse cx="24.9998" cy="45" rx="5.00003" ry="5" fill="#18335D"/>
<ellipse cx="44.9983" cy="45" rx="5.00003" ry="5" fill="#18335D"/>
<ellipse cx="65.0006" cy="45" rx="5.00003" ry="5" fill="#18335D"/>
<ellipse cx="85.0004" cy="45" rx="5.00003" ry="5" fill="#18335D"/>
<ellipse cx="105.001" cy="45" rx="5.00003" ry="5" fill="#18335D"/>
<ellipse cx="5.00003" cy="65" rx="5.00003" ry="5" fill="#18335D"/>
<ellipse cx="24.9998" cy="65" rx="5.00003" ry="5" fill="#18335D"/>
<ellipse cx="44.9983" cy="65" rx="5.00003" ry="5" fill="#18335D"/>
<ellipse cx="65.0006" cy="65" rx="5.00003" ry="5" fill="#18335D"/>
<ellipse cx="85.0004" cy="65" rx="5.00003" ry="5" fill="#18335D"/>
<ellipse cx="105.001" cy="65" rx="5.00003" ry="5" fill="#18335D"/>
<ellipse cx="5.00003" cy="85" rx="5.00003" ry="5" fill="#18335D"/>
<ellipse cx="24.9998" cy="85" rx="5.00003" ry="5" fill="#18335D"/>
<ellipse cx="44.9983" cy="85" rx="5.00003" ry="5" fill="#18335D"/>
<ellipse cx="65.0006" cy="85" rx="5.00003" ry="5" fill="#18335D"/>
<ellipse cx="85.0004" cy="85" rx="5.00003" ry="5" fill="#18335D"/>
<ellipse cx="105.001" cy="85" rx="5.00003" ry="5" fill="#18335D"/>
<ellipse cx="5.00003" cy="105" rx="5.00003" ry="5" fill="#18335D"/>
<ellipse cx="24.9998" cy="105" rx="5.00003" ry="5" fill="#18335D"/>
<ellipse cx="44.9983" cy="105" rx="5.00003" ry="5" fill="#18335D"/>
<ellipse cx="65.0006" cy="105" rx="5.00003" ry="5" fill="#18335D"/>
<ellipse cx="85.0004" cy="105" rx="5.00003" ry="5" fill="#18335D"/>
<ellipse cx="105.001" cy="105" rx="5.00003" ry="5" fill="#18335D"/>
<ellipse cx="125.001" cy="125" rx="5.00003" ry="5" fill="#18335D"/>
<ellipse cx="145.002" cy="125" rx="5.00003" ry="5" fill="#18335D"/>
<ellipse cx="165.001" cy="125" rx="5.00003" ry="5" fill="#18335D"/>
<ellipse cx="185" cy="125" rx="5.00003" ry="5" fill="#18335D"/>
<ellipse cx="205.003" cy="125" rx="5.00003" ry="5" fill="#18335D"/>
<ellipse cx="225" cy="125" rx="5.00003" ry="5" fill="#18335D"/>
<ellipse cx="125.001" cy="145" rx="5.00003" ry="5" fill="#18335D"/>
<ellipse cx="145.002" cy="145" rx="5.00003" ry="5" fill="#18335D"/>
<ellipse cx="165.001" cy="145" rx="5.00003" ry="5" fill="#18335D"/>
<ellipse cx="185" cy="145" rx="5.00003" ry="5" fill="#18335D"/>
<ellipse cx="205.003" cy="145" rx="5.00003" ry="5" fill="#18335D"/>
<ellipse cx="225" cy="145" rx="5.00003" ry="5" fill="#18335D"/>
<ellipse cx="125.001" cy="165" rx="5.00003" ry="5" fill="#18335D"/>
<ellipse cx="145.002" cy="165" rx="5.00003" ry="5" fill="#18335D"/>
<ellipse cx="165.001" cy="165" rx="5.00003" ry="5" fill="#18335D"/>
<ellipse cx="185" cy="165" rx="5.00003" ry="5" fill="#18335D"/>
<ellipse cx="205.003" cy="165" rx="5.00003" ry="5" fill="#18335D"/>
<ellipse cx="225" cy="165" rx="5.00003" ry="5" fill="#18335D"/>
<ellipse cx="125.001" cy="185" rx="5.00003" ry="5" fill="#18335D"/>
<ellipse cx="145.002" cy="185" rx="5.00003" ry="5" fill="#18335D"/>
<ellipse cx="165.001" cy="185" rx="5.00003" ry="5" fill="#18335D"/>
<ellipse cx="185" cy="185" rx="5.00003" ry="5" fill="#18335D"/>
<ellipse cx="205.003" cy="185" rx="5.00003" ry="5" fill="#18335D"/>
<ellipse cx="225" cy="185" rx="5.00003" ry="5" fill="#18335D"/>
<ellipse cx="125.001" cy="205" rx="5.00003" ry="5" fill="#18335D"/>
<ellipse cx="145.002" cy="205" rx="5.00003" ry="5" fill="#18335D"/>
<ellipse cx="165.001" cy="205" rx="5.00003" ry="5" fill="#18335D"/>
<ellipse cx="185" cy="205" rx="5.00003" ry="5" fill="#18335D"/>
<ellipse cx="205.003" cy="205" rx="5.00003" ry="5" fill="#18335D"/>
<ellipse cx="225" cy="205" rx="5.00003" ry="5" fill="#18335D"/>
<ellipse cx="125.001" cy="225" rx="5.00003" ry="5" fill="#18335D"/>
<ellipse cx="145.002" cy="225" rx="5.00003" ry="5" fill="#18335D"/>
<ellipse cx="165.001" cy="225" rx="5.00003" ry="5" fill="#18335D"/>
<ellipse cx="185" cy="225" rx="5.00003" ry="5" fill="#18335D"/>
<ellipse cx="205.003" cy="225" rx="5.00003" ry="5" fill="#18335D"/>
<ellipse cx="225" cy="225" rx="5.00003" ry="5" fill="#18335D"/>
</svg>
