<svg width="32" height="32" viewBox="0 0 32 32" fill="none" xmlns="http://www.w3.org/2000/svg">
<g id="fb">
<path id="Vector" fill-rule="evenodd" clip-rule="evenodd" d="M22.04 6.40322L19.3376 6.40002C16.304 6.40002 14.3408 8.25602 14.3408 11.1248V13.304H11.6256C11.3904 13.304 11.2 13.48 11.2 13.696V16.8528C11.2 17.0688 11.3904 17.2432 11.6256 17.2432H14.3408V25.208C14.3408 25.4256 14.5328 25.6 14.7664 25.6H18.3104C18.5456 25.6 18.7344 25.424 18.7344 25.208V17.2432H21.912C22.1456 17.2432 22.336 17.0672 22.336 16.8528V13.696C22.3357 13.6439 22.3246 13.5924 22.3034 13.5447C22.2822 13.4971 22.2513 13.4544 22.2128 13.4192C22.1305 13.3445 22.0232 13.3033 21.912 13.304H18.736V11.456C18.736 10.568 18.9664 10.1168 20.2208 10.1168H22.0416C22.2752 10.1168 22.4656 9.94082 22.4656 9.72482V6.79522C22.4656 6.57922 22.2752 6.40482 22.0416 6.40322H22.04Z" fill="#F69D1E"/>
</g>
</svg>
