<svg width="25" height="24" viewBox="0 0 25 24" fill="none" xmlns="http://www.w3.org/2000/svg">
<g id="vuesax/outline/flash">
<g id="flash">
<path id="Vector" d="M22.7471 11.305C22.976 11.8145 22.8896 12.3856 22.5178 12.8098C22.5177 12.81 22.5175 12.8102 22.5173 12.8103L14.948 21.4095C14.948 21.4096 14.9479 21.4096 14.9479 21.4097C14.6762 21.718 14.2947 21.8801 13.9032 21.8801C13.732 21.8801 13.5605 21.8504 13.3961 21.7909C12.8451 21.5843 12.4932 21.0732 12.4932 20.4801V14.0301V13.5301H11.9932H9.65322C9.09093 13.5301 8.60896 13.2164 8.37929 12.7052C8.15036 12.1956 8.23685 11.6244 8.60875 11.2002C8.60886 11.2 8.60897 11.1999 8.60909 11.1998L16.178 2.60108C16.1781 2.60095 16.1782 2.60081 16.1783 2.60068C16.573 2.15421 17.1726 2.00362 17.7229 2.21642L17.7229 2.21645L17.7283 2.21848C18.2805 2.42462 18.6332 2.93623 18.6332 3.53006V9.98006V10.4801H19.1332H21.4732C22.0355 10.4801 22.5174 10.7938 22.7471 11.305ZM17.2132 2.62006C17.0068 2.62006 16.7451 2.69353 16.5429 2.93539L8.9795 11.5379C8.97917 11.5382 8.97885 11.5386 8.97852 11.539C8.62405 11.9388 8.76729 12.3655 8.82365 12.497C8.886 12.6425 9.11714 13.0401 9.65322 13.0401H12.7432C12.8771 13.0401 12.9932 13.1562 12.9932 13.2901V20.4901C12.9932 21.0476 13.4156 21.2774 13.5777 21.3382C13.7174 21.3906 14.2006 21.5225 14.5717 21.0868L22.1369 12.4822C22.1373 12.4818 22.1376 12.4814 22.138 12.481C22.4923 12.0813 22.3492 11.6547 22.2928 11.5231C22.2304 11.3776 21.9993 10.9801 21.4632 10.9801H18.3732C18.2394 10.9801 18.1232 10.8639 18.1232 10.7301V3.53006C18.1232 3.01586 17.764 2.78041 17.581 2.69922C17.505 2.66049 17.434 2.6442 17.393 2.6364C17.3307 2.62453 17.2688 2.62006 17.2132 2.62006Z" fill="#ABA7AF" stroke="#ABA7AF"/>
<path id="Vector_2" d="M8.83325 4.25H1.83325C1.69939 4.25 1.58325 4.13386 1.58325 4C1.58325 3.86614 1.69939 3.75 1.83325 3.75H8.83325C8.96711 3.75 9.08325 3.86614 9.08325 4C9.08325 4.13386 8.96711 4.25 8.83325 4.25Z" fill="#ABA7AF" stroke="#ABA7AF"/>
<path id="Vector_3" d="M7.83325 20.75H1.83325C1.42325 20.75 1.08325 20.41 1.08325 20C1.08325 19.59 1.42325 19.25 1.83325 19.25H7.83325C8.24325 19.25 8.58325 19.59 8.58325 20C8.58325 20.41 8.24325 20.75 7.83325 20.75Z" fill="#ABA7AF"/>
<path id="Vector_4" d="M4.83325 12.75H1.83325C1.42325 12.75 1.08325 12.41 1.08325 12C1.08325 11.59 1.42325 11.25 1.83325 11.25H4.83325C5.24325 11.25 5.58325 11.59 5.58325 12C5.58325 12.41 5.24325 12.75 4.83325 12.75Z" fill="#ABA7AF"/>
</g>
</g>
</svg>
