<svg width="32" height="32" viewBox="0 0 32 32" fill="none" xmlns="http://www.w3.org/2000/svg">
<g id="instagram">
<path id="Vector" fill-rule="evenodd" clip-rule="evenodd" d="M16 6.40002C19.1264 6.40002 19.4976 6.41122 20.7328 6.46882C23.9056 6.61282 25.3888 8.11842 25.5328 11.2688C25.5888 12.5024 25.6 12.8736 25.6 16C25.6 19.128 25.5888 19.4976 25.5328 20.7312C25.3872 23.8784 23.9088 25.3872 20.7328 25.5312C19.4976 25.5888 19.128 25.6 16 25.6C12.8736 25.6 12.5024 25.5888 11.2688 25.5312C8.08642 25.3872 6.61282 23.8736 6.46882 20.7312C6.41122 19.496 6.40002 19.1264 6.40002 15.9984C6.40002 12.872 6.41282 12.5024 6.46882 11.2672C6.61282 8.11842 8.09282 6.61122 11.2688 6.46722C12.504 6.41122 12.8736 6.40002 16 6.40002ZM16 10.4688C15.2737 10.4688 14.5544 10.6119 13.8833 10.8899C13.2122 11.1678 12.6025 11.5753 12.0889 12.0889C11.5753 12.6025 11.1678 13.2122 10.8899 13.8833C10.6119 14.5544 10.4688 15.2737 10.4688 16C10.4688 16.7264 10.6119 17.4456 10.8899 18.1167C11.1678 18.7878 11.5753 19.3976 12.0889 19.9112C12.6025 20.4248 13.2122 20.8322 13.8833 21.1102C14.5544 21.3882 15.2737 21.5312 16 21.5312C17.467 21.5312 18.8739 20.9485 19.9112 19.9112C20.9485 18.8739 21.5312 17.467 21.5312 16C21.5312 14.5331 20.9485 13.1262 19.9112 12.0889C18.8739 11.0516 17.467 10.4688 16 10.4688ZM16 19.5888C15.5223 19.5989 15.0473 19.5135 14.6029 19.3377C14.1586 19.1618 13.7538 18.899 13.4124 18.5647C13.0709 18.2304 12.7996 17.8312 12.6144 17.3907C12.4292 16.9502 12.3338 16.4771 12.3338 15.9992C12.3338 15.5213 12.4292 15.0483 12.6144 14.6078C12.7996 14.1672 13.0709 13.7681 13.4124 13.4338C13.7538 13.0994 14.1586 12.8367 14.6029 12.6608C15.0473 12.4849 15.5223 12.3995 16 12.4096C16.9389 12.4294 17.8327 12.8163 18.4897 13.4874C19.1467 14.1584 19.5146 15.0601 19.5146 15.9992C19.5146 16.9383 19.1467 17.8401 18.4897 18.5111C17.8327 19.1821 16.9389 19.569 16 19.5888ZM21.7504 8.95682C21.5805 8.95682 21.4123 8.99028 21.2554 9.05529C21.0984 9.1203 20.9558 9.21559 20.8357 9.33571C20.7156 9.45583 20.6203 9.59844 20.5553 9.75538C20.4903 9.91233 20.4568 10.0805 20.4568 10.2504C20.4568 10.4203 20.4903 10.5885 20.5553 10.7455C20.6203 10.9024 20.7156 11.045 20.8357 11.1651C20.9558 11.2853 21.0984 11.3805 21.2554 11.4456C21.4123 11.5106 21.5805 11.544 21.7504 11.544C22.0935 11.544 22.4225 11.4077 22.6651 11.1651C22.9077 10.9225 23.044 10.5935 23.044 10.2504C23.044 9.90734 22.9077 9.57831 22.6651 9.33571C22.4225 9.09311 22.0935 8.95682 21.7504 8.95682Z" fill="#F69D1E"/>
</g>
</svg>
