<svg width="28" height="28" viewBox="0 0 28 28" fill="none" xmlns="http://www.w3.org/2000/svg">
<path d="M1.75 6.01562C1.75 5.5805 1.91133 5.16321 2.19849 4.85553C2.48566 4.54785 2.87514 4.375 3.28125 4.375H24.7188C25.1249 4.375 25.5143 4.54785 25.8015 4.85553C26.0887 5.16321 26.25 5.5805 26.25 6.01562C26.25 6.45075 26.0887 6.86804 25.8015 7.17572C25.5143 7.4834 25.1249 7.65625 24.7188 7.65625H3.28125C2.87514 7.65625 2.48566 7.4834 2.19849 7.17572C1.91133 6.86804 1.75 6.45075 1.75 6.01562ZM1.75 14.2188C1.75 13.7836 1.91133 13.3663 2.19849 13.0587C2.48566 12.751 2.87514 12.5781 3.28125 12.5781H24.7188C25.1249 12.5781 25.5143 12.751 25.8015 13.0587C26.0887 13.3663 26.25 13.7836 26.25 14.2188C26.25 14.6539 26.0887 15.0712 25.8015 15.3788C25.5143 15.6865 25.1249 15.8594 24.7188 15.8594H3.28125C2.87514 15.8594 2.48566 15.6865 2.19849 15.3788C1.91133 15.0712 1.75 14.6539 1.75 14.2188ZM1.75 22.4219C1.75 21.9868 1.91133 21.5695 2.19849 21.2618C2.48566 20.9541 2.87514 20.7812 3.28125 20.7812H24.7188C25.1249 20.7812 25.5143 20.9541 25.8015 21.2618C26.0887 21.5695 26.25 21.9868 26.25 22.4219C26.25 22.857 26.0887 23.2743 25.8015 23.582C25.5143 23.8897 25.1249 24.0625 24.7188 24.0625H3.28125C2.87514 24.0625 2.48566 23.8897 2.19849 23.582C1.91133 23.2743 1.75 22.857 1.75 22.4219Z" fill="white"/>
</svg>
