<svg width="151" height="16" viewBox="0 0 151 16" fill="none" xmlns="http://www.w3.org/2000/svg">
<g clip-path="url(#clip0_660_18393)">
<path fill-rule="evenodd" clip-rule="evenodd" d="M4.18241 15.8748H0.00549316V3.80951H4.18241C7.95791 3.80951 10.5725 6.41087 10.5725 9.82311C10.5725 13.2354 7.95791 15.8748 4.18241 15.8748ZM4.18241 5.06665H1.36163V14.6177H4.18241C7.22016 14.6177 9.16216 12.5496 9.16216 9.86121C9.16216 7.17277 7.22016 5.06665 4.18241 5.06665Z" fill="#F69D1E"/>
<path fill-rule="evenodd" clip-rule="evenodd" d="M21.0365 15.8748L17.5485 11.1891H14.1093V15.8748H12.7532V3.80951H17.9228C20.57 3.80951 22.2733 5.2408 22.2733 7.41223C22.2733 9.43128 20.8954 10.6013 19.0077 10.9442L22.7018 15.8748H21.0365ZM17.8251 5.06665H14.1093V9.96461H17.8034C19.6098 9.96461 20.8954 9.034 20.8954 7.46121C20.8954 5.96461 19.7617 5.06665 17.8251 5.06665Z" fill="#F69D1E"/>
<path d="M33.5238 5.05033H26.1898V9.17005H32.7535V10.4109H26.1898V14.634H33.6106V15.8748H24.8337V3.80951H33.5238V5.05033Z" fill="#F69D1E"/>
<path fill-rule="evenodd" clip-rule="evenodd" d="M47.5463 15.8749H46.0817L44.6767 12.6857H38.1293L36.7026 15.8749H35.3139L40.7927 3.72247H42.0621L47.5463 15.8749ZM41.4165 5.31159L38.6663 11.4612H44.1451L41.4165 5.31159Z" fill="#F69D1E"/>
<path d="M54.9996 12.566H54.9291L50.5515 6.11699V15.8748H49.2279V3.80951H50.6003L54.9834 10.3945L59.3664 3.80951H60.7388V15.8748H59.3827V6.10067L54.9996 12.566Z" fill="#F69D1E"/>
<path d="M64.9429 13.8068L67.091 11.7714C67.6769 12.4789 68.2247 12.8925 68.9625 12.8925C69.8033 12.8925 70.3403 12.3265 70.3403 11.2054V3.57007H73.6547V11.2218C73.6547 12.7401 73.275 13.8068 72.4667 14.6177C71.6802 15.4068 70.5464 15.8422 69.1686 15.8422C67.0747 15.8422 65.7837 14.9605 64.9429 13.8068Z" fill="#18335D"/>
<path d="M88.9141 10.3401V3.57007H92.2936V10.2748C92.2936 12.0163 93.1723 12.8435 94.5122 12.8435C95.8521 12.8435 96.7309 12.049 96.7309 10.3619V3.57007H100.11V10.2585C100.11 14.1497 97.8971 15.8585 94.4797 15.8585C91.0568 15.8585 88.9141 14.117 88.9141 10.3401Z" fill="#18335D"/>
<path fill-rule="evenodd" clip-rule="evenodd" d="M102.09 3.57007H107.775C109.614 3.57007 110.883 4.04898 111.692 4.87619C112.397 5.56735 112.76 6.49796 112.76 7.6898V7.72245C112.76 9.56735 111.779 10.7918 110.281 11.4286L113.151 15.6354H109.305L106.88 11.9782H105.421V15.6354H102.09V3.57007ZM107.623 9.36054C108.757 9.36054 109.408 8.81088 109.408 7.92925V7.8966C109.408 6.94422 108.719 6.46531 107.602 6.46531H105.421V9.36054H107.623Z" fill="#18335D"/>
<path d="M114.442 3.57007H117.55L122.497 9.9483V3.57007H125.796V15.6354H122.877L117.74 9.01225V15.6354H114.442V3.57007Z" fill="#18335D"/>
<path d="M127.927 3.57007H137.599V6.41088H131.226V8.23946H136.997V10.8789H131.226V12.7891H137.686V15.6354H127.927V3.57007Z" fill="#18335D"/>
<path d="M142.856 11.1184L138.288 3.57007H142.086L144.559 7.96191L147.049 3.57007H150.781L146.208 11.0639V15.6354H142.856V11.1184Z" fill="#18335D"/>
<path d="M82.9362 9.34966C82.9398 9.35692 82.9453 9.36417 82.9526 9.37143C82.9471 9.3551 82.9416 9.33878 82.9362 9.32245C82.9362 9.33333 82.9362 9.3424 82.9362 9.34966Z" fill="#18335D"/>
<path d="M81.1623 15.8857C81.3251 14.7755 82.3666 13.9483 83.3376 13.7742C83.5383 13.4313 83.7064 13.0612 83.7607 12.664C83.9072 11.532 83.6468 10.4817 83.1097 9.71975C82.6704 10.3021 81.9109 11.4504 82.4534 11.864C82.5293 11.9238 82.6161 11.9728 82.7029 12.0109C82.4588 12 82.2201 11.9129 82.0086 11.7551C81.4607 11.3361 81.3522 10.5524 81.7699 10.0027C81.9163 9.80682 82.1116 9.67077 82.3232 9.59458C81.618 9.65444 80.9562 10.1551 81.0213 10.7429C81.0321 10.8463 81.0538 10.9388 81.0918 11.0313C80.9291 10.8463 80.8206 10.6123 80.7935 10.351C80.7175 9.66533 81.2111 9.04492 81.8946 8.96873C82.0086 8.9524 82.1225 8.95785 82.2364 8.97961C81.9977 8.81091 81.7319 8.64764 81.4227 8.72927C81.4227 8.72927 81.9706 8.27213 82.4263 8.51159C82.4208 7.96737 83.1152 7.71159 83.1152 7.71159C82.8222 8.00546 82.9036 8.42995 82.9416 8.76737C82.985 8.58778 83.0663 8.41907 83.1911 8.26125C83.6305 7.72791 84.4171 7.65172 84.9487 8.0871C85.1494 8.2558 85.285 8.47349 85.3555 8.7075C85.2958 8.63131 85.2308 8.56057 85.1548 8.49526C84.6774 8.10342 84.0428 8.5007 83.5925 8.98506C83.777 8.89254 83.9994 8.84356 84.2381 8.85444C84.927 8.8871 85.4532 9.47485 85.4206 10.166C85.4098 10.4272 85.3175 10.6667 85.1657 10.8626C85.1928 10.7701 85.2145 10.6721 85.2199 10.5742C85.2525 9.88846 83.994 9.68165 83.2725 9.64356C83.777 10.1116 84.2652 10.9442 84.3954 11.63C84.5364 12.3538 84.5364 13.1374 84.3303 13.7851C84.8782 13.8667 85.3284 14.0572 85.5725 14.3021C86.8907 13.1374 87.7206 11.4395 87.7206 9.54016C87.7206 6.0354 84.8836 3.19458 81.3847 3.19458C80.1154 3.19458 78.9383 3.57009 77.951 4.21771C78.4772 4.79458 78.7864 5.55104 78.7864 6.38914C78.7864 8.1905 77.3326 9.65444 75.5371 9.65444C75.3743 9.65444 75.2116 9.64356 75.0597 9.61635C75.1031 13.0123 77.7991 15.766 81.1623 15.8857Z" fill="#18335D"/>
<path d="M78.7918 2.24215C78.2059 2.24215 77.7286 1.76868 77.7286 1.18092C77.7286 0.587727 78.2059 0.114258 78.7918 0.114258C79.3776 0.114258 79.855 0.587727 79.855 1.18092C79.855 1.76868 79.3776 2.24215 78.7918 2.24215Z" fill="#F69D1E"/>
<path d="M77.951 4.21771C78.4772 4.79458 78.7864 5.55105 78.7864 6.38914C78.7864 8.1905 77.3326 9.65445 75.5371 9.65445C75.3743 9.65445 75.2116 9.64356 75.0597 9.61635C75.0597 9.59458 75.0597 9.56737 75.0597 9.54016C75.0597 7.30343 76.2151 5.34424 77.951 4.21771Z" fill="#F69D1E"/>
<path d="M75.5371 3.12378C76.5027 3.12378 77.3652 3.54827 77.951 4.21766C76.2152 5.34419 75.0597 7.30337 75.0597 9.54011C75.0597 9.56732 75.0597 9.59453 75.0597 9.6163C73.4866 9.38773 72.2823 8.02718 72.2823 6.38909C72.2823 4.58773 73.7361 3.12378 75.5371 3.12378Z" fill="#FECA0A"/>
</g>
<defs>
<clipPath id="clip0_660_18393">
<rect width="150.857" height="16" fill="white"/>
</clipPath>
</defs>
</svg>
