<svg width="49" height="64" viewBox="0 0 49 64" fill="none" xmlns="http://www.w3.org/2000/svg">
<path d="M47.4 33.2573L3.2375 62.6989C2.92377 62.9077 2.55929 63.0275 2.18288 63.0455C1.80647 63.0635 1.43222 62.979 1.1 62.8012C0.767772 62.6233 0.490015 62.3587 0.296307 62.0354C0.102598 61.7122 0.000194668 61.3424 0 60.9656V2.08226C0.000194668 1.70542 0.102598 1.33568 0.296307 1.01244C0.490015 0.689194 0.767772 0.424542 1.1 0.246672C1.43222 0.0688018 1.80647 -0.0156265 2.18288 0.00238013C2.55929 0.0203868 2.92377 0.140155 3.2375 0.348926L47.4 29.7906C47.6853 29.9808 47.9193 30.2386 48.0811 30.541C48.2429 30.8433 48.3275 31.181 48.3275 31.5239C48.3275 31.8669 48.2429 32.2045 48.0811 32.5069C47.9193 32.8093 47.6853 33.067 47.4 33.2573Z" fill="url(#paint0_linear_227_16)"/>
<defs>
<linearGradient id="paint0_linear_227_16" x1="0" y1="0" x2="37.5" y2="56" gradientUnits="userSpaceOnUse">
<stop stop-color="#F8E267"/>
<stop offset="1" stop-color="#F6B80F"/>
</linearGradient>
</defs>
</svg>
