<svg width="17" height="16" viewBox="0 0 17 16" fill="none" xmlns="http://www.w3.org/2000/svg">
<g id="vuesax/linear/wallet">
<g id="wallet">
<path id="Vector" d="M8.93997 1.67877L8.91997 1.72543L6.98664 6.2121H5.08664C4.63331 6.2121 4.19997 6.30543 3.80664 6.4721L4.97331 3.68543L4.99997 3.61877L5.04664 3.5121C5.05997 3.4721 5.07331 3.4321 5.09331 3.39877C5.96664 1.37877 6.95331 0.918767 8.93997 1.67877Z" stroke="#292D32" stroke-width="1.5" stroke-linecap="round" stroke-linejoin="round"/>
<path id="Vector_2" d="M12.5335 6.34544C12.2335 6.25211 11.9135 6.21211 11.5935 6.21211H6.98682L8.92015 1.72544L8.94015 1.67877C9.04015 1.71211 9.13348 1.75877 9.23348 1.79877L10.7068 2.41877C11.5268 2.75877 12.1001 3.11211 12.4468 3.53877C12.5135 3.61877 12.5668 3.69211 12.6135 3.77877C12.6735 3.87211 12.7202 3.96544 12.7468 4.06544C12.7735 4.12544 12.7935 4.18544 12.8068 4.23877C12.9868 4.79877 12.8802 5.48544 12.5335 6.34544Z" stroke="#292D32" stroke-width="1.5" stroke-linecap="round" stroke-linejoin="round"/>
<path id="Vector_3" d="M14.848 9.46558V10.7656C14.848 10.8989 14.8413 11.0322 14.8346 11.1656C14.708 13.4922 13.408 14.6656 10.9413 14.6656H5.74131C5.58131 14.6656 5.42131 14.6522 5.26798 14.6322C3.14798 14.4922 2.01464 13.3589 1.87464 11.2389C1.85464 11.0856 1.84131 10.9256 1.84131 10.7656V9.46558C1.84131 8.12558 2.65464 6.97225 3.81464 6.47225C4.21464 6.30558 4.64131 6.21225 5.09464 6.21225H11.6013C11.928 6.21225 12.248 6.25892 12.5413 6.34558C13.868 6.75225 14.848 7.99225 14.848 9.46558Z" stroke="#292D32" stroke-width="1.5" stroke-linecap="round" stroke-linejoin="round"/>
<path id="Vector_4" d="M4.9735 3.68542L3.80683 6.47209C2.64683 6.97209 1.8335 8.12543 1.8335 9.46543V7.51209C1.8335 5.61876 3.18016 4.03876 4.9735 3.68542Z" stroke="#292D32" stroke-width="1.5" stroke-linecap="round" stroke-linejoin="round"/>
<path id="Vector_5" d="M14.8457 7.51176V9.46509C14.8457 7.99843 13.8724 6.75176 12.5391 6.35176C12.8857 5.48509 12.9857 4.80509 12.8191 4.23843C12.8057 4.17843 12.7857 4.11843 12.7591 4.06509C13.9991 4.70509 14.8457 6.01843 14.8457 7.51176Z" stroke="#292D32" stroke-width="1.5" stroke-linecap="round" stroke-linejoin="round"/>
</g>
</g>
</svg>
